<svg xmlns="http://www.w3.org/2000/svg" viewBox="0 0 20 19.99"><defs><style>.cls-1{fill:#1fa087;}</style></defs><title>rogramacion tematicaagenda</title><g id="Capa_2" data-name="Capa 2"><g id="Capa_1-2" data-name="Capa 1"><path class="cls-1" d="M4.21,8.29v6.3a.86.86,0,0,0,0,.16.52.52,0,0,0,.36.45.9.9,0,0,0,.28,0H15.31a.48.48,0,0,0,.42-.29,1,1,0,0,0,.07-.39V8.08H4.21Zm4.61,5.94H7.43V12.84H8.82Zm1.87,0H9.31V12.84h1.38Zm1.89,0H11.19V12.84h1.39Zm.49-5.15h1.38v1.39H13.07Zm0,1.88h1.39v1.38H13.07Zm-.49,1.38H11.19V11h1.39ZM11.19,9.08h1.39v1.39H11.19Zm-1.88,0h1.38v1.4H9.31ZM9.3,11h1.39v1.38H9.3ZM7.43,9.08H8.82v1.38H7.43Zm0,1.87H8.82v1.4H7.43ZM5.54,11h1.4v1.39H5.54Zm0,1.89H6.93v1.39H5.54Z"/><path class="cls-1" d="M10,0A10,10,0,1,0,20,10,10,10,0,0,0,10,0Zm3.32,4.51a.55.55,0,1,1,1.1,0q0,.81,0,1.62a.54.54,0,0,1-.56.57.54.54,0,0,1-.54-.58c0-.27,0-.55,0-.82S13.31,4.76,13.32,4.51ZM5.59,5.3c0-.29,0-.58,0-.86a.55.55,0,0,1,1-.23.73.73,0,0,1,.07.29c0,.54,0,1.07,0,1.6a.55.55,0,0,1-.41.56.53.53,0,0,1-.6-.23.78.78,0,0,1-.09-.34c0-.26,0-.53,0-.79Zm10.3,10.61a1.35,1.35,0,0,1-.69.16H4.79a1.38,1.38,0,0,1-1.42-1.41V6.8a1.63,1.63,0,0,1,.13-.69A1.41,1.41,0,0,1,5,5.32V6.1A1.06,1.06,0,0,0,5.48,7a1.05,1.05,0,0,0,1.14.11,1.08,1.08,0,0,0,.62-1c0-.27,0-.55,0-.83h5.53c0,.25,0,.49,0,.73a1.62,1.62,0,0,0,.1.54A1.1,1.1,0,0,0,15,6.18c0-.28,0-.57,0-.84a1.37,1.37,0,0,1,1.65,1.22,1.09,1.09,0,0,1,0,.18v7.9A1.36,1.36,0,0,1,15.89,15.91Z"/></g></g></svg>