<svg xmlns="http://www.w3.org/2000/svg" viewBox="0 0 23 23"><defs><style>.cls-1{fill:#f59b00;}</style></defs><title>avatar_info_marina</title><g id="Capa_2" data-name="Capa 2"><g id="Capa_1-2" data-name="Capa 1"><path class="cls-1" d="M11.5,0A11.5,11.5,0,1,0,23,11.5,11.5,11.5,0,0,0,11.5,0Zm0,3.09A3.77,3.77,0,1,1,7.74,6.86,3.77,3.77,0,0,1,11.5,3.09Zm0,13.46H5.78V14.83a3.54,3.54,0,0,1,3.54-3.54h4.36a3.54,3.54,0,0,1,2.44,1,4.64,4.64,0,0,0-1-.12h0a3.83,3.83,0,0,0-3.68,3.33A3.54,3.54,0,0,0,11.46,16.55Zm7.19-.23a.56.56,0,0,0,0,.12,3.32,3.32,0,0,1-2.13,2.7,8.29,8.29,0,0,1-.89.24h-.65c-.22-.05-.45-.09-.67-.16a3.39,3.39,0,1,1,4.32-3.86l.06.31Z"/><path class="cls-1" d="M15.69,18.33a.42.42,0,1,1-.84,0V15.82a.42.42,0,0,1,.84,0Z"/><path class="cls-1" d="M15.27,14.57a.56.56,0,1,1,.56-.56A.56.56,0,0,1,15.27,14.57Z"/></g></g></svg>