<svg xmlns="http://www.w3.org/2000/svg" viewBox="0 0 22.71 22.71"><defs><style>.cls-1{fill:#ec2327;}</style></defs><title>cancelar_1</title><g id="Capa_2" data-name="Capa 2"><g id="Capa_1-2" data-name="Capa 1"><path class="cls-1" d="M11.35,0A11.36,11.36,0,1,0,22.71,11.35,11.35,11.35,0,0,0,11.35,0Zm5.83,14.82a1,1,0,0,1,0,1.42l-.94.94a1,1,0,0,1-1.42,0l-3.47-3.47L7.88,17.18a1,1,0,0,1-1.41,0l-.94-.94a1,1,0,0,1,0-1.42L9,11.35,5.53,7.88a1,1,0,0,1,0-1.41l.94-.94a1,1,0,0,1,1.41,0L11.35,9l3.47-3.47a1,1,0,0,1,1.42,0l.94.94a1,1,0,0,1,0,1.41l-3.47,3.47Z"/></g></g></svg>