<svg xmlns="http://www.w3.org/2000/svg" viewBox="0 0 23 23"><defs><style>.cls-1{fill:#f59b00;}</style></defs><title>idioma_marina</title><g id="Capa_2" data-name="Capa 2"><g id="Capa_1-2" data-name="Capa 1"><path class="cls-1" d="M11.5,0A11.5,11.5,0,1,0,23,11.5,11.5,11.5,0,0,0,11.5,0ZM4,11.26V5.6A1.63,1.63,0,0,1,5.6,4h5.66a1.63,1.63,0,0,1,1.61,1.38l1.48,1.06a.44.44,0,0,1,.18.36.42.42,0,0,1-.18.36l-1.47,1V9.24H11.74A2.49,2.49,0,0,0,10,9.91l-.3.33a2.52,2.52,0,0,0-.49,1.5v1.14H5.6A1.62,1.62,0,0,1,4,11.26ZM19,17.4A1.63,1.63,0,0,1,17.4,19H11.74a1.63,1.63,0,0,1-1.61-1.38L8.65,16.58a.44.44,0,0,1-.18-.36.42.42,0,0,1,.18-.36l1.47-1V11.74a1.61,1.61,0,0,1,1.62-1.62H17.4A1.62,1.62,0,0,1,19,11.74Z"/><path class="cls-1" d="M16.41,16.64,15.1,12.36a.56.56,0,0,0-.57-.3.55.55,0,0,0-.56.3l-1.31,4.28a.21.21,0,0,0,0,.06c0,.22.32.37.56.37a.27.27,0,0,0,.3-.18l.26-.9h1.55l.26.9a.27.27,0,0,0,.3.18c.24,0,.56-.16.56-.37A.14.14,0,0,0,16.41,16.64ZM13.94,15.3l.59-2.09.59,2.09Z"/><path class="cls-1" d="M10.15,7.42a.35.35,0,1,0,0-.7H8.61V5.88a.35.35,0,0,0-.35-.35.35.35,0,0,0-.34.35v.84H6.37a.35.35,0,0,0,0,.7h.48a3.28,3.28,0,0,0,.87,1.9,2.61,2.61,0,0,1-1.35.38.35.35,0,0,0,0,.69A3.31,3.31,0,0,0,8.26,9.8a3.33,3.33,0,0,0,1.89.59.35.35,0,1,0,0-.69,2.55,2.55,0,0,1-1.34-.38,3.35,3.35,0,0,0,.87-1.9ZM8.26,8.89a2.65,2.65,0,0,1-.71-1.47H9A2.66,2.66,0,0,1,8.26,8.89Z"/></g></g></svg>