<?xml version="1.0" ?><svg id="svg5" version="1.1" viewBox="0 0 50 50"  xml:space="preserve" xmlns="http://www.w3.org/2000/svg" xmlns:svg="http://www.w3.org/2000/svg"><defs id="defs2"/><g id="layer1" transform="translate(-103,-103)"><path d="m 127.79406,111.42129 a 1.3342239,0.74966718 0 0 0 -0.73633,0.21093 l -8.64062,4.85547 a 1.3342239,0.74966718 0 0 0 0,1.06055 l 3.58398,2.01367 v 4.4375 c 5.3e-4,0.41087 0.2523,0.7796 0.63477,0.92969 3.46574,1.36398 7.11037,1.46815 10.74023,-0.004 0.37655,-0.15327 0.62284,-0.51923 0.62305,-0.92578 v -4.43555 l 1.00195,-0.56241 v 1.87305 a 1,1 0 0 0 1,1 1,1 0 0 0 1,-1 v -2.99609 l 0.58594,-0.33008 a 1.3342239,0.74966718 0 0 0 0,-1.06055 l -8.64258,-4.85547 a 1.3342239,0.74966718 0 0 0 -1.15039,-0.21093 z m 0.20703,1.80078 6.75586,3.79492 -6.75586,3.79492 -6.75391,-3.79492 z m -4,7.46484 3.05664,1.7168 a 1.3342239,0.74966718 0 0 0 1.88672,0 l 3.05469,-1.7168 v 2.51172 c -2.72884,0.95597 -5.35418,0.90813 -7.99805,0 z" id="path56955" style="color:#000000;fill:#000000;fill-opacity:1;fill-rule:evenodd;stroke-linecap:round;stroke-linejoin:round;stroke-miterlimit:4.1"/><path d="m 121.00891,141.42715 c -0.81076,0.23895 -1.57389,0.51535 -2.26562,0.83398 -1.2188,0.56142 -2.24081,1.23996 -2.9961,2.0625 -0.45776,0.49852 -0.81622,1.06468 -1.02929,1.67578 h -0.7168 c -0.55228,0 -1,0.44772 -1,1 0,0.55229 0.44772,1 1,1 h 0.58203 c 0.16783,0.79653 0.58782,1.5326 1.16406,2.16016 0.75529,0.82254 1.7773,1.50109 2.9961,2.0625 2.20795,1.01704 5.07902,1.6476 8.25781,1.75781 v 1.01953 c 0,0.55229 0.44772,1 1,1 0.55229,0 1,-0.44771 1,-1 v -1.01953 c 3.17879,-0.11021 6.04986,-0.74077 8.25781,-1.75781 1.21881,-0.56141 2.24081,-1.23996 2.9961,-2.0625 0.57625,-0.62756 0.99623,-1.36363 1.16406,-2.16016 h 0.58203 c 0.55229,0 1,-0.44771 1,-1 0,-0.55228 -0.44771,-1 -1,-1 h -0.71289 c -0.45763,-1.3252 -1.62115,-2.42857 -3.10352,-3.26562 -0.48105,-0.27214 -1.09164,-0.10243 -1.36328,0.3789 -0.27213,0.48106 -0.10243,1.09165 0.37891,1.36329 0.86775,0.48999 1.46628,1.01002 1.83789,1.52343 h -0.0371 c -0.55228,0 -1,0.44772 -1,1 0,0.55229 0.44772,1 1,1 h 0.33398 c -0.1159,0.2603 -0.2965,0.5276 -0.55273,0.80664 -0.50978,0.55518 -1.31808,1.11906 -2.36133,1.59961 -1.87486,0.86362 -4.49417,1.45781 -7.41992,1.57032 -0.0127,-0.54311 -0.45674,-0.97672 -1,-0.97657 -0.5425,9.1e-4 -0.98533,0.43421 -0.99805,0.97657 -2.92653,-0.11232 -5.54659,-0.70651 -7.42187,-1.57032 -1.04325,-0.48055 -1.85155,-1.04443 -2.36133,-1.59961 -0.25623,-0.27904 -0.43683,-0.54634 -0.55273,-0.80664 h 0.33398 c 0.55229,0 1,-0.44771 1,-1 0,-0.55228 -0.44771,-1 -1,-1 h -0.0449 c 0.0777,-0.10593 0.16331,-0.21296 0.26367,-0.32226 0.50978,-0.55517 1.31809,-1.11906 2.36133,-1.59961 0.81175,-0.37392 1.76541,-0.6946 2.82031,-0.95117 -0.45083,-0.54131 -0.91212,-1.10393 -1.39258,-1.69922 z" id="path52178" style="color:#000000;fill:#000000;fill-opacity:1;fill-rule:evenodd;stroke-linecap:round;stroke-linejoin:round;stroke-miterlimit:4.1"/><path d="m 128.0011,99.999414 c -10.48155,0 -19,8.518446 -19,18.999996 0,5.57411 4.65955,12.76781 9.19922,18.82813 4.53966,6.06031 9.07422,10.85937 9.07422,10.85937 a 1.00011,1.00011 0 0 0 1.45312,0 c 0,0 11.67251,-12.28085 16.375,-22.57617 a 1.00001,1.00001 0 0 0 -0.49414,-1.32617 1.00001,1.00001 0 0 0 -1.32617,0.49414 c -4.17925,9.14978 -14.12793,19.94674 -15.29687,21.20703 -0.96089,-1.03657 -4.31605,-4.69437 -8.1836,-9.85742 -4.46032,-5.9544 -8.80078,-13.26191 -8.80078,-17.62891 0,-9.40066 7.59934,-17 17,-17 9.40067,0 17,7.59934 17,17 a 1.00001,1.00001 0 0 0 1,1 1.00001,1.00001 0 0 0 1,-1 c 0,-10.48155 -8.51844,-18.999996 -19,-18.999996 z" id="path52182" style="color:#000000;fill:#000000;fill-opacity:1;fill-rule:evenodd;stroke-linecap:round;stroke-linejoin:round;stroke-miterlimit:4.1"/><path d="m 145.51397,121.57889 a 1,1 0 0 0 -1,1 1,1 0 0 0 1,1 1,1 0 0 0 1,-1 1,1 0 0 0 -1,-1 z" id="path52184" style="color:#000000;fill:#000000;fill-opacity:1;fill-rule:evenodd;stroke-linecap:round;stroke-linejoin:round;stroke-miterlimit:4.1"/><path d="m 128.0011,132.99941 c -2.31767,0 -4.51168,-0.56438 -6.43945,-1.56445 a 1.000005,1.000005 0 0 1 -0.42578,-1.34961 1.000005,1.000005 0 0 1 1.34765,-0.42578 c 1.65158,0.85678 3.52441,1.33984 5.51758,1.33984 6.63922,0 12,-5.36078 12,-12 0,-1.48995 -0.27131,-2.913 -0.76563,-4.22656 a 1.000005,1.000005 0 0 1 0.58399,-1.28711 1.000005,1.000005 0 0 1 1.28906,0.58398 c 0.57735,1.53423 0.89258,3.19717 0.89258,4.92969 0,7.7201 -6.27989,14 -14,14 z m -11.63672,-6.71875 a 1.000005,1.000005 0 0 1 -0.59961,-0.47461 c -1.12311,-2.01503 -1.76367,-4.34008 -1.76367,-6.80664 0,-7.7201 6.27989,-14 14,-14 2.33914,0 4.55148,0.57631 6.49219,1.59375 a 1.000005,1.000005 0 0 1 0.42187,1.34961 1.000005,1.000005 0 0 1 -1.35156,0.42187 c -1.66271,-0.87169 -3.55086,-1.36523 -5.5625,-1.36523 -6.63922,0 -12,5.36078 -12,12 0,2.12122 0.54736,4.10728 1.50977,5.83398 a 1.000005,1.000005 0 0 1 -0.38672,1.35938 1.000005,1.000005 0 0 1 -0.75977,0.0879 z" id="path52186" style="color:#000000;fill:#000000;fill-opacity:1;fill-rule:evenodd;stroke-linecap:round;stroke-linejoin:round;stroke-miterlimit:4.1"/></g></svg>