<svg xmlns="http://www.w3.org/2000/svg" viewBox="0 0 20.62 20.62"><defs><style>.cls-1{fill:#ffffff;}.cls-2{fill:#32b056;}</style></defs><title>cargar</title><g id="Capa_2" data-name="Capa 2"><g id="Capa_1-2" data-name="Capa 1"><circle class="cls-1" cx="10.31" cy="10.31" r="10.31"/><path class="cls-2" d="M11,3.78a1,1,0,0,0-1.4,0L6.69,6.69a1,1,0,0,0,0,1.4,1,1,0,0,0,1.4,0L9.32,6.86v5a1,1,0,0,0,2,0v-5l1.23,1.23a1,1,0,0,0,1.4,0,1,1,0,0,0,0-1.4Z"/><rect class="cls-2" x="4.77" y="14.29" width="11.09" height="1.33" rx="0.66" ry="0.66"/></g></g></svg>