<svg xmlns="http://www.w3.org/2000/svg" viewBox="0 0 91.59 91.59"><defs><style>.cls-1{fill:#ffffff;}.cls-2{fill:#ffffff;}.cls-3{fill:#f59b00;}.cls-4{fill:#ffffff;}.cls-5{fill:#f59b00;}</style></defs><g id="Capa_2" data-name="Capa 2"><g id="Capa_1-2" data-name="Capa 1"><circle class="cls-1" cx="45.8" cy="45.8" r="45.8" transform="translate(-7.23 82.98) rotate(-80.04)"/><circle class="cls-2" cx="45.8" cy="45.8" r="43.54"/><circle class="cls-3" cx="45.8" cy="45.8" r="42.61"/><rect class="cls-4" x="19.81" y="25.91" width="52.25" height="37.08"/><path class="cls-1" d="M72.06,63.83H19.81A.8.8,0,0,1,19,63V25.91a.8.8,0,0,1,.85-.84H72.06a.79.79,0,0,1,.84.84V63A.79.79,0,0,1,72.06,63.83ZM20.65,62.15H71.21V26.75H20.65Z"/><path class="cls-3" d="M49.72,22.46c-2.1,0-3.79,2.52-3.79,4.63V63c0-2.1,1.69-4.63,3.79-4.63H68V22.46Z"/><path class="cls-1" d="M45.93,63.83a.79.79,0,0,1-.84-.84V27.09c0-2.53,2-5.48,4.63-5.48H68a.8.8,0,0,1,.85.85v35.9a.8.8,0,0,1-.85.84H49.72c-1.6,0-2.95,2.11-2.95,3.79A.79.79,0,0,1,45.93,63.83ZM49.72,23.3c-1.51,0-2.95,2.1-2.95,3.79V59a4.12,4.12,0,0,1,2.95-1.44H67.17V23.3Z"/><path class="cls-5" d="M49.3,26.25a.39.39,0,0,1,.42-.42H64.64V55H49.3Z"/><path class="cls-3" d="M42.14,22.46c2.11,0,3.79,2.52,3.79,4.63V63c0-2.1-1.68-4.63-3.79-4.63H23.85V22.46Z"/><path class="cls-1" d="M45.93,63.83a.79.79,0,0,1-.84-.84c0-1.68-1.43-3.79-3-3.79H23.85a.8.8,0,0,1-.84-.84V22.46a.8.8,0,0,1,.84-.85H42.14c2.61,0,4.63,2.95,4.63,5.48V63A.79.79,0,0,1,45.93,63.83ZM24.69,57.51H42.14a4.1,4.1,0,0,1,3,1.44V27.09c0-1.69-1.43-3.79-3-3.79H24.69Z"/><path class="cls-5" d="M42.56,55H27.22V25.83H42.14a.39.39,0,0,1,.42.42Z"/><path class="cls-2" d="M42.56,35.6V26.25a.39.39,0,0,0-.42-.42H27.22V35.6Z"/><rect class="cls-1" x="52" y="29.45" width="9.94" height="1.69"/><rect class="cls-1" x="52" y="34.34" width="9.94" height="1.69"/><rect class="cls-1" x="55.37" y="39.23" width="6.57" height="1.69"/><rect class="cls-1" x="58.74" y="44.2" width="3.2" height="1.69"/><rect class="cls-1" x="58.74" y="49.09" width="3.2" height="1.69"/><rect class="cls-1" x="29.92" y="39.23" width="5.73" height="1.69"/><rect class="cls-1" x="29.92" y="44.2" width="3.2" height="1.69"/><path class="cls-2" d="M42.9,59.45V71.67a3,3,0,0,0,3,3h0a3,3,0,0,0,3-3V59.45Z"/><path class="cls-1" d="M49,58.61H42.9a.79.79,0,0,0-.84.84V71.67a3.88,3.88,0,1,0,7.75,0V59.45A.84.84,0,0,0,49,58.61Zm-.85,13.06a2.19,2.19,0,0,1-4.38,0V60.3h4.38V71.67Z"/><circle class="cls-3" cx="45.93" cy="49.51" r="10.53"/><path class="cls-1" d="M45.93,60.88A11.38,11.38,0,1,1,57.31,49.51,11.44,11.44,0,0,1,45.93,60.88Zm0-21.06a9.69,9.69,0,1,0,9.69,9.69A9.74,9.74,0,0,0,45.93,39.82Z"/><rect class="cls-1" x="45.09" y="62.15" width="1.69" height="1.69"/><rect class="cls-1" x="45.09" y="66.28" width="1.69" height="1.69"/><rect class="cls-1" x="45.09" y="70.32" width="1.69" height="1.69"/><path class="cls-1" d="M43.4,51.28l-1,2.36H40.62L45,43.52h1.76l4.47,10.12H49.47l-1-2.36Zm4.3-1.52-1.77-4.13-1.85,4.13Z"/></g></g></svg>




