<svg xmlns="http://www.w3.org/2000/svg" viewBox="0 0 20.62 20.62"><defs><style>.cls-1{fill:#f59b00;}.cls-2{fill:#fff;}</style></defs><title>crerar situacion</title><g id="Capa_2" data-name="Capa 2"><g id="Capa_1-2" data-name="Capa 1"><circle class="cls-1" cx="10.31" cy="10.31" r="10.31"/><path class="cls-2" d="M5.06,14.24V4.58a1,1,0,0,1,.67-.67h5.65c.48.5,1,1,1.45,1.49L14.46,7v1.6h-.27a4.58,4.58,0,0,0-2.34.62,1.15,1.15,0,0,1-.54.15c-1.29,0-2.59,0-3.88,0H6.65v.83h4.06l-.49.76H6.64v.8H9.91l-.14.76H6.64v.81H9.73l.45,1.55c-1.36,0-2.71,0-4.06,0A1,1,0,0,1,5.06,14.24Zm7.87-6.4H6.64v.78h6.29Zm.67-.79L11.34,4.77c0,.57,0,1.15,0,1.73a.55.55,0,0,0,.51.54C12.46,7.06,13.05,7.05,13.6,7.05Z"/><path class="cls-2" d="M13.78,16.48c-.23-.06-.47-.1-.7-.17a3.52,3.52,0,1,1,4.49-4,3,3,0,0,0,.07.32v.67a1.12,1.12,0,0,0-.05.13,3.44,3.44,0,0,1-2.21,2.8,7.55,7.55,0,0,1-.93.26Zm.73-3.94v-.95c0-.44-.13-.63-.41-.63s-.4.19-.4.64,0,.61,0,.93h-1c-.44,0-.63.12-.62.41s.19.4.62.4h1c0,.38,0,.74,0,1.09s.14.48.41.48.39-.17.4-.5V13.35h1c.37,0,.54-.13.54-.41s-.17-.4-.52-.4Z"/></g></g></svg>