<svg xmlns="http://www.w3.org/2000/svg" viewBox="0 0 23 23"><defs><style>.cls-1{fill:#f59b00;}</style></defs><title>evaluacion_2</title><g id="Capa_2" data-name="Capa 2"><g id="Capa_1-2" data-name="Capa 1"><rect class="cls-1" x="7.55" y="8.32" width="0.8" height="0.72"/><rect class="cls-1" x="7.55" y="9.9" width="0.8" height="0.72"/><rect class="cls-1" x="7.55" y="6.74" width="0.8" height="0.72"/><rect class="cls-1" x="8.86" y="8.32" width="6.49" height="0.72"/><rect class="cls-1" x="8.86" y="6.74" width="6.49" height="0.72"/><path class="cls-1" d="M11.5,0A11.5,11.5,0,1,0,23,11.5,11.5,11.5,0,0,0,11.5,0ZM6.6,18.33a.53.53,0,0,1-.52-.52V5.11a.53.53,0,0,1,.52-.52h9.7a.52.52,0,0,1,.52.52v5.76l-3.31,3.31-1-1a1.93,1.93,0,0,0-1.39-.58,2,2,0,0,0-1.46.63,2,2,0,0,0,0,2.79L12,18.33Zm10.22-.52a.52.52,0,0,1-.52.52H15.05l1.77-1.78Zm2-5L14,17.62h0a.76.76,0,0,1-1.07,0l-.05-.06h0l-2.44-2.44a.77.77,0,0,1,0-1.07l.06-.06a.76.76,0,0,1,1.07,0l1.91,1.91,4.21-4.22a.77.77,0,0,1,1.08,0l.05.06A.75.75,0,0,1,18.85,12.81Z"/><rect class="cls-1" x="8.86" y="9.9" width="6.49" height="0.72"/></g></g></svg>

