<svg xmlns="http://www.w3.org/2000/svg" viewBox="0 0 23 23"><defs><style>.cls-1{fill:#f59b00;}</style></defs><title>experiencia_marina</title><g id="Capa_2" data-name="Capa 2"><g id="Capa_1-2" data-name="Capa 1"><path class="cls-1" d="M13.17,5.93H9.83a.27.27,0,0,0-.27.26V7.36h3.88V6.19A.27.27,0,0,0,13.17,5.93Z"/><path class="cls-1" d="M11.5,0A11.5,11.5,0,1,0,23,11.5,11.5,11.5,0,0,0,11.5,0Zm7.89,16.44A1.57,1.57,0,0,1,17.82,18H5.18a1.57,1.57,0,0,1-1.57-1.57V11.27H8.89v.4a1.72,1.72,0,0,0,1.71,1.71h1.8a1.72,1.72,0,0,0,1.71-1.71v-.4h5.28ZM9.83,11.67v-.4h3.34v.4a.78.78,0,0,1-.77.77H10.6A.78.78,0,0,1,9.83,11.67Zm9.56-1.34H3.61V8.94A1.57,1.57,0,0,1,5.18,7.36H8.62V6.19A1.21,1.21,0,0,1,9.83,5h3.34a1.21,1.21,0,0,1,1.21,1.2V7.36h3.44a1.57,1.57,0,0,1,1.57,1.58Z"/></g></g></svg>