<svg xmlns="http://www.w3.org/2000/svg" viewBox="0 0 20.62 20.62"><defs><style>.cls-1{fill:#00b248;}.cls-2{fill:#fff;}</style></defs><title>guardar</title><g id="Capa_2" data-name="Capa 2"><g id="Capa_1-2" data-name="Capa 1"><circle class="cls-1" cx="10.31" cy="10.31" r="10.31"/><path class="cls-2" d="M14.48,4.49a1.16,1.16,0,0,0-.75-.3H5.35a1,1,0,0,0-1,1V15.43a1,1,0,0,0,1,1h9.91a1,1,0,0,0,1-1s0-8.7,0-8.84a.71.71,0,0,0-.19-.53Zm-1.25.32V8.19a.63.63,0,0,1-.6.58H8.33a.61.61,0,0,1-.57-.57V4.81ZM14.59,15H6V10.37a.64.64,0,0,1,.62-.65H14a.64.64,0,0,1,.62.65V15Z"/><rect class="cls-2" x="10.81" y="5.38" width="1.73" height="2.82" rx="0.32" ry="0.32"/></g></g></svg>